<mxfile host="app.diagrams.net" modified="2024-01-30T00:54:33.985Z" agent="Mozilla/5.0 (X11; Ubuntu; Linux x86_64; rv:122.0) Gecko/20100101 Firefox/122.0" etag="zcS1Csv9JwvjTNn0bG6p" version="23.0.2" type="github">
  <diagram name="Seite-1" id="wV-U8cGLGiMWVSrPxud8">
    <mxGraphModel dx="4327" dy="1477" grid="1" gridSize="10" guides="1" tooltips="1" connect="1" arrows="1" fold="1" page="1" pageScale="1" pageWidth="850" pageHeight="1100" math="0" shadow="0">
      <root>
        <mxCell id="0" />
        <mxCell id="1" parent="0" />
        <mxCell id="kQXzKHsSV_J-5wYFKN4F-1" value="&amp;nbsp;" style="text;whiteSpace=wrap;html=1;" vertex="1" parent="1">
          <mxGeometry x="-1090" y="90" width="40" height="40" as="geometry" />
        </mxCell>
        <mxCell id="kQXzKHsSV_J-5wYFKN4F-113" value="" style="edgeStyle=orthogonalEdgeStyle;rounded=0;orthogonalLoop=1;jettySize=auto;html=1;fillColor=#f8cecc;strokeColor=#b85450;" edge="1" parent="1" source="kQXzKHsSV_J-5wYFKN4F-114" target="kQXzKHsSV_J-5wYFKN4F-122">
          <mxGeometry relative="1" as="geometry" />
        </mxCell>
        <mxCell id="kQXzKHsSV_J-5wYFKN4F-172" style="edgeStyle=orthogonalEdgeStyle;rounded=0;orthogonalLoop=1;jettySize=auto;html=1;entryX=0.5;entryY=0;entryDx=0;entryDy=0;" edge="1" parent="1" source="kQXzKHsSV_J-5wYFKN4F-114" target="kQXzKHsSV_J-5wYFKN4F-143">
          <mxGeometry relative="1" as="geometry" />
        </mxCell>
        <mxCell id="kQXzKHsSV_J-5wYFKN4F-114" value="&lt;div style=&quot;font-size: 13px;&quot;&gt;&lt;font color=&quot;#f5f5f5&quot; style=&quot;font-size: 13px;&quot;&gt;Evaluierung der&lt;/font&gt;&lt;/div&gt;&lt;div style=&quot;font-size: 13px;&quot;&gt;&lt;font color=&quot;#f5f5f5&quot; style=&quot;font-size: 13px;&quot;&gt;&amp;nbsp;Mikrokontrooler&lt;/font&gt;&lt;/div&gt;" style="rounded=1;fillColor=#23445D;strokeColor=none;strokeWidth=2;fontFamily=Helvetica;html=1;gradientColor=none;fontSize=13;" vertex="1" parent="1">
          <mxGeometry x="-1493.4954421768707" y="180.13" width="127" height="50" as="geometry" />
        </mxCell>
        <mxCell id="kQXzKHsSV_J-5wYFKN4F-119" value="" style="edgeStyle=orthogonalEdgeStyle;rounded=0;orthogonalLoop=1;jettySize=auto;html=1;fillColor=#f8cecc;strokeColor=#b85450;" edge="1" parent="1" source="kQXzKHsSV_J-5wYFKN4F-120" target="kQXzKHsSV_J-5wYFKN4F-114">
          <mxGeometry relative="1" as="geometry" />
        </mxCell>
        <mxCell id="kQXzKHsSV_J-5wYFKN4F-120" value="&lt;div style=&quot;font-size: 13px;&quot;&gt;&lt;font color=&quot;#dbdbdb&quot; style=&quot;font-size: 13px;&quot;&gt;Erfassung der Anforderungen&lt;/font&gt;&lt;/div&gt;&lt;div style=&quot;font-size: 13px;&quot;&gt;&lt;font color=&quot;#dbdbdb&quot; style=&quot;font-size: 13px;&quot;&gt;&amp;nbsp;Hard- und Software&lt;/font&gt;&lt;/div&gt;" style="rounded=1;fillColor=#23445D;strokeColor=none;strokeWidth=2;fontFamily=Helvetica;html=1;gradientColor=none;fontSize=13;" vertex="1" parent="1">
          <mxGeometry x="-1530" y="113.75" width="200" height="52" as="geometry" />
        </mxCell>
        <mxCell id="kQXzKHsSV_J-5wYFKN4F-121" style="edgeStyle=orthogonalEdgeStyle;rounded=0;orthogonalLoop=1;jettySize=auto;html=1;fillColor=#f8cecc;strokeColor=#b85450;" edge="1" parent="1" source="kQXzKHsSV_J-5wYFKN4F-122" target="kQXzKHsSV_J-5wYFKN4F-124">
          <mxGeometry relative="1" as="geometry" />
        </mxCell>
        <mxCell id="kQXzKHsSV_J-5wYFKN4F-122" value="&lt;div style=&quot;font-size: 13px;&quot;&gt;&lt;font color=&quot;#f0f0f0&quot; style=&quot;font-size: 13px;&quot;&gt;Auswahl des&amp;nbsp;&lt;/font&gt;&lt;/div&gt;&lt;div style=&quot;font-size: 13px;&quot;&gt;&lt;font color=&quot;#f0f0f0&quot; style=&quot;font-size: 13px;&quot;&gt;Mikrokontroller&lt;/font&gt;&lt;/div&gt;" style="rounded=1;fillColor=#23445D;strokeColor=none;strokeWidth=2;fontFamily=Helvetica;html=1;gradientColor=none;fontSize=13;" vertex="1" parent="1">
          <mxGeometry x="-1493.4954421768707" y="270" width="127" height="50" as="geometry" />
        </mxCell>
        <mxCell id="kQXzKHsSV_J-5wYFKN4F-198" style="edgeStyle=orthogonalEdgeStyle;rounded=0;orthogonalLoop=1;jettySize=auto;html=1;entryX=0.5;entryY=0;entryDx=0;entryDy=0;fillColor=#f8cecc;strokeColor=#b85450;" edge="1" parent="1" source="kQXzKHsSV_J-5wYFKN4F-124" target="kQXzKHsSV_J-5wYFKN4F-137">
          <mxGeometry relative="1" as="geometry" />
        </mxCell>
        <mxCell id="kQXzKHsSV_J-5wYFKN4F-124" value="&lt;div style=&quot;font-size: 13px;&quot;&gt;&lt;font color=&quot;#fcfcfc&quot; style=&quot;font-size: 13px;&quot;&gt;Auswahl des&amp;nbsp;&lt;/font&gt;&lt;/div&gt;&lt;div style=&quot;font-size: 13px;&quot;&gt;&lt;font color=&quot;#fcfcfc&quot; style=&quot;font-size: 13px;&quot;&gt;Kameramoduls&lt;/font&gt;&lt;/div&gt;" style="rounded=1;fillColor=#23445D;strokeColor=none;strokeWidth=2;fontFamily=Helvetica;html=1;gradientColor=none;fontSize=13;" vertex="1" parent="1">
          <mxGeometry x="-1493.4954421768707" y="350" width="127" height="50" as="geometry" />
        </mxCell>
        <mxCell id="kQXzKHsSV_J-5wYFKN4F-169" style="edgeStyle=orthogonalEdgeStyle;rounded=0;orthogonalLoop=1;jettySize=auto;html=1;entryX=0.5;entryY=0;entryDx=0;entryDy=0;fillColor=#f8cecc;strokeColor=#b85450;" edge="1" parent="1" source="kQXzKHsSV_J-5wYFKN4F-127" target="kQXzKHsSV_J-5wYFKN4F-145">
          <mxGeometry relative="1" as="geometry" />
        </mxCell>
        <mxCell id="kQXzKHsSV_J-5wYFKN4F-175" style="edgeStyle=orthogonalEdgeStyle;rounded=0;orthogonalLoop=1;jettySize=auto;html=1;entryX=0.5;entryY=0;entryDx=0;entryDy=0;" edge="1" parent="1" source="kQXzKHsSV_J-5wYFKN4F-127" target="kQXzKHsSV_J-5wYFKN4F-153">
          <mxGeometry relative="1" as="geometry" />
        </mxCell>
        <mxCell id="kQXzKHsSV_J-5wYFKN4F-127" value="&lt;div style=&quot;font-size: 13px;&quot;&gt;&lt;font style=&quot;font-size: 13px;&quot;&gt;Einbau des&lt;/font&gt;&lt;/div&gt;&lt;div style=&quot;font-size: 13px;&quot;&gt;&lt;font style=&quot;font-size: 13px;&quot;&gt;&amp;nbsp;Kamera Moduls&lt;/font&gt;&lt;/div&gt;" style="rounded=1;fillColor=#23445D;strokeColor=none;strokeWidth=2;fontFamily=Helvetica;html=1;gradientColor=none;fontColor=#FFFFFF;fontSize=13;" vertex="1" parent="1">
          <mxGeometry x="-1518.4954421768707" y="500" width="127" height="50" as="geometry" />
        </mxCell>
        <mxCell id="kQXzKHsSV_J-5wYFKN4F-136" style="edgeStyle=orthogonalEdgeStyle;rounded=0;orthogonalLoop=1;jettySize=auto;html=1;fillColor=#f8cecc;strokeColor=#b85450;" edge="1" parent="1" source="kQXzKHsSV_J-5wYFKN4F-137" target="kQXzKHsSV_J-5wYFKN4F-157">
          <mxGeometry relative="1" as="geometry" />
        </mxCell>
        <mxCell id="kQXzKHsSV_J-5wYFKN4F-137" value="&lt;div style=&quot;font-size: 13px;&quot;&gt;Erfassung GehÃ¤use&amp;nbsp;&lt;/div&gt;&lt;div style=&quot;font-size: 13px;&quot;&gt;Dimensionen&lt;/div&gt;" style="rounded=1;fillColor=#23445D;strokeColor=none;strokeWidth=2;fontFamily=Helvetica;html=1;gradientColor=none;fontColor=#FFFFFF;fontSize=13;" vertex="1" parent="1">
          <mxGeometry x="-1356.2454421768707" y="400" width="127" height="50" as="geometry" />
        </mxCell>
        <mxCell id="kQXzKHsSV_J-5wYFKN4F-178" style="edgeStyle=orthogonalEdgeStyle;rounded=0;orthogonalLoop=1;jettySize=auto;html=1;entryX=0;entryY=0.5;entryDx=0;entryDy=0;fillColor=#f8cecc;strokeColor=#b85450;" edge="1" parent="1" source="kQXzKHsSV_J-5wYFKN4F-141" target="kQXzKHsSV_J-5wYFKN4F-149">
          <mxGeometry relative="1" as="geometry" />
        </mxCell>
        <mxCell id="kQXzKHsSV_J-5wYFKN4F-141" value="&lt;div style=&quot;font-size: 13px;&quot;&gt;Installation Software&lt;/div&gt;&lt;div style=&quot;font-size: 13px;&quot;&gt;KD-Device&lt;/div&gt;" style="rounded=1;fillColor=#23445D;strokeColor=none;strokeWidth=2;fontFamily=Helvetica;html=1;gradientColor=none;fontColor=#FFFFFF;fontSize=13;" vertex="1" parent="1">
          <mxGeometry x="-1518.4954421768707" y="660" width="127" height="50" as="geometry" />
        </mxCell>
        <mxCell id="kQXzKHsSV_J-5wYFKN4F-142" style="edgeStyle=orthogonalEdgeStyle;rounded=0;orthogonalLoop=1;jettySize=auto;html=1;" edge="1" parent="1" source="kQXzKHsSV_J-5wYFKN4F-143" target="kQXzKHsSV_J-5wYFKN4F-147">
          <mxGeometry relative="1" as="geometry" />
        </mxCell>
        <mxCell id="kQXzKHsSV_J-5wYFKN4F-170" style="edgeStyle=orthogonalEdgeStyle;rounded=0;orthogonalLoop=1;jettySize=auto;html=1;dashed=1;dashPattern=12 12;" edge="1" parent="1" source="kQXzKHsSV_J-5wYFKN4F-143" target="kQXzKHsSV_J-5wYFKN4F-145">
          <mxGeometry relative="1" as="geometry" />
        </mxCell>
        <mxCell id="kQXzKHsSV_J-5wYFKN4F-143" value="Auswahl QKD Dienst" style="rounded=1;fillColor=#23445D;strokeColor=none;strokeWidth=2;fontFamily=Helvetica;html=1;gradientColor=none;fontColor=#FFFFFF;fontSize=13;" vertex="1" parent="1">
          <mxGeometry x="-1191.4954421768703" y="550" width="127" height="50" as="geometry" />
        </mxCell>
        <mxCell id="kQXzKHsSV_J-5wYFKN4F-173" style="edgeStyle=orthogonalEdgeStyle;rounded=0;orthogonalLoop=1;jettySize=auto;html=1;fillColor=#f8cecc;strokeColor=#b85450;" edge="1" parent="1" source="kQXzKHsSV_J-5wYFKN4F-145" target="kQXzKHsSV_J-5wYFKN4F-141">
          <mxGeometry relative="1" as="geometry" />
        </mxCell>
        <mxCell id="kQXzKHsSV_J-5wYFKN4F-145" value="&lt;div style=&quot;font-size: 13px;&quot;&gt;Entwicklung Software&lt;/div&gt;&lt;div style=&quot;font-size: 13px;&quot;&gt;QKD-Device&lt;br style=&quot;font-size: 13px;&quot;&gt;&lt;/div&gt;" style="rounded=1;fillColor=#23445D;strokeColor=none;strokeWidth=2;fontFamily=Helvetica;html=1;gradientColor=none;fontColor=#FFFFFF;fontSize=13;" vertex="1" parent="1">
          <mxGeometry x="-1518.4954421768707" y="580" width="127" height="50" as="geometry" />
        </mxCell>
        <mxCell id="kQXzKHsSV_J-5wYFKN4F-177" style="edgeStyle=orthogonalEdgeStyle;rounded=0;orthogonalLoop=1;jettySize=auto;html=1;" edge="1" parent="1" source="kQXzKHsSV_J-5wYFKN4F-147" target="kQXzKHsSV_J-5wYFKN4F-149">
          <mxGeometry relative="1" as="geometry" />
        </mxCell>
        <mxCell id="kQXzKHsSV_J-5wYFKN4F-147" value="&lt;div style=&quot;font-size: 13px;&quot;&gt;Isntallation QKN- Software&lt;/div&gt;&lt;div style=&quot;font-size: 13px;&quot;&gt;in&amp;nbsp; Testumgebung&lt;br style=&quot;font-size: 13px;&quot;&gt;&lt;/div&gt;" style="rounded=1;fillColor=#23445D;strokeColor=none;strokeWidth=2;fontFamily=Helvetica;html=1;gradientColor=none;fontColor=#FFFFFF;fontSize=13;" vertex="1" parent="1">
          <mxGeometry x="-1203" y="630" width="150" height="50" as="geometry" />
        </mxCell>
        <mxCell id="kQXzKHsSV_J-5wYFKN4F-148" style="edgeStyle=orthogonalEdgeStyle;rounded=0;orthogonalLoop=1;jettySize=auto;html=1;entryX=0;entryY=0.5;entryDx=0;entryDy=0;fillColor=#f8cecc;strokeColor=#b85450;" edge="1" parent="1" source="kQXzKHsSV_J-5wYFKN4F-149" target="kQXzKHsSV_J-5wYFKN4F-151">
          <mxGeometry relative="1" as="geometry" />
        </mxCell>
        <mxCell id="kQXzKHsSV_J-5wYFKN4F-149" value="&lt;div style=&quot;font-size: 13px;&quot;&gt;Integration&lt;/div&gt;&lt;div style=&quot;font-size: 13px;&quot;&gt;&amp;nbsp;der Schnittstellen&lt;/div&gt;" style="rounded=1;fillColor=#23445D;strokeColor=none;strokeWidth=2;fontFamily=Helvetica;html=1;gradientColor=none;fontColor=#FFFFFF;fontSize=13;" vertex="1" parent="1">
          <mxGeometry x="-1191.4954421768707" y="730" width="127" height="50" as="geometry" />
        </mxCell>
        <mxCell id="kQXzKHsSV_J-5wYFKN4F-150" style="edgeStyle=orthogonalEdgeStyle;rounded=0;orthogonalLoop=1;jettySize=auto;html=1;fillColor=#f8cecc;strokeColor=#b85450;" edge="1" parent="1" source="kQXzKHsSV_J-5wYFKN4F-151" target="kQXzKHsSV_J-5wYFKN4F-155">
          <mxGeometry relative="1" as="geometry" />
        </mxCell>
        <mxCell id="kQXzKHsSV_J-5wYFKN4F-151" value="Inbetriebnahme" style="rounded=1;fillColor=#23445D;strokeColor=none;strokeWidth=2;fontFamily=Helvetica;html=1;gradientColor=none;fontColor=#FFFFFF;fontSize=13;" vertex="1" parent="1">
          <mxGeometry x="-1011.4954421768707" y="780" width="127" height="50" as="geometry" />
        </mxCell>
        <mxCell id="kQXzKHsSV_J-5wYFKN4F-171" value="" style="edgeStyle=orthogonalEdgeStyle;rounded=0;orthogonalLoop=1;jettySize=auto;html=1;" edge="1" parent="1" source="kQXzKHsSV_J-5wYFKN4F-153" target="kQXzKHsSV_J-5wYFKN4F-147">
          <mxGeometry relative="1" as="geometry" />
        </mxCell>
        <mxCell id="kQXzKHsSV_J-5wYFKN4F-153" value="&lt;div style=&quot;font-size: 13px;&quot;&gt;Zusammenbau der&amp;nbsp;&lt;/div&gt;&lt;div style=&quot;font-size: 13px;&quot;&gt;Hardware Komponenten&lt;br style=&quot;font-size: 13px;&quot;&gt;&lt;/div&gt;" style="rounded=1;fillColor=#23445D;strokeColor=none;strokeWidth=2;fontFamily=Helvetica;html=1;gradientColor=none;fontColor=#FFFFFF;fontSize=13;" vertex="1" parent="1">
          <mxGeometry x="-1383.75" y="630" width="154.5" height="50" as="geometry" />
        </mxCell>
        <mxCell id="kQXzKHsSV_J-5wYFKN4F-154" style="edgeStyle=orthogonalEdgeStyle;rounded=0;orthogonalLoop=1;jettySize=auto;html=1;fillColor=#f8cecc;strokeColor=#b85450;" edge="1" parent="1" source="kQXzKHsSV_J-5wYFKN4F-155" target="kQXzKHsSV_J-5wYFKN4F-156">
          <mxGeometry relative="1" as="geometry" />
        </mxCell>
        <mxCell id="kQXzKHsSV_J-5wYFKN4F-155" value="Test" style="rounded=1;fillColor=#23445D;strokeColor=none;strokeWidth=2;fontFamily=Helvetica;html=1;gradientColor=none;fontColor=#FFFFFF;fontSize=13;" vertex="1" parent="1">
          <mxGeometry x="-1011.4954421768707" y="849.5" width="127" height="50" as="geometry" />
        </mxCell>
        <mxCell id="kQXzKHsSV_J-5wYFKN4F-156" value="Dokumentation" style="rounded=1;fillColor=#23445D;strokeColor=none;strokeWidth=2;fontFamily=Helvetica;html=1;gradientColor=none;fontColor=#FFFFFF;fontSize=13;" vertex="1" parent="1">
          <mxGeometry x="-1011.4954421768707" y="920" width="127" height="50" as="geometry" />
        </mxCell>
        <mxCell id="kQXzKHsSV_J-5wYFKN4F-199" style="edgeStyle=orthogonalEdgeStyle;rounded=0;orthogonalLoop=1;jettySize=auto;html=1;entryX=0.5;entryY=0;entryDx=0;entryDy=0;fillColor=#f8cecc;strokeColor=#b85450;" edge="1" parent="1" source="kQXzKHsSV_J-5wYFKN4F-157" target="kQXzKHsSV_J-5wYFKN4F-127">
          <mxGeometry relative="1" as="geometry" />
        </mxCell>
        <mxCell id="kQXzKHsSV_J-5wYFKN4F-157" value="Auswahl GehÃ¤use" style="rounded=1;fillColor=#23445D;strokeColor=none;strokeWidth=2;fontFamily=Helvetica;html=1;gradientColor=none;fontColor=#FFFFFF;fontSize=13;" vertex="1" parent="1">
          <mxGeometry x="-1356.2454421768707" y="450" width="127" height="50" as="geometry" />
        </mxCell>
        <mxCell id="kQXzKHsSV_J-5wYFKN4F-158" value="September " style="strokeColor=#BAC8D3;fillColor=#5d7f99;fontSize=19;strokeWidth=2;fontFamily=Helvetica;html=1;labelBackgroundColor=none;fontColor=#FFFFFF;" vertex="1" parent="1">
          <mxGeometry x="-1640" y="10" width="100" height="239.5" as="geometry" />
        </mxCell>
        <mxCell id="kQXzKHsSV_J-5wYFKN4F-159" value="2023" style="strokeColor=#BAC8D3;fillColor=#5d7f99;fontSize=19;strokeWidth=2;fontFamily=Helvetica;html=1;labelBackgroundColor=none;fontColor=#FFFFFF;" vertex="1" parent="1">
          <mxGeometry x="-1690" y="10" width="50" height="960" as="geometry" />
        </mxCell>
        <mxCell id="kQXzKHsSV_J-5wYFKN4F-160" value="Oktober " style="strokeColor=#BAC8D3;fillColor=#5d7f99;fontSize=19;strokeWidth=2;fontFamily=Helvetica;html=1;labelBackgroundColor=none;fontColor=#FFFFFF;" vertex="1" parent="1">
          <mxGeometry x="-1640" y="249.5" width="100" height="240.5" as="geometry" />
        </mxCell>
        <mxCell id="kQXzKHsSV_J-5wYFKN4F-161" value="November" style="strokeColor=#BAC8D3;fillColor=#5d7f99;fontSize=19;strokeWidth=2;fontFamily=Helvetica;html=1;labelBackgroundColor=none;fontColor=#FFFFFF;" vertex="1" parent="1">
          <mxGeometry x="-1640" y="490" width="100" height="240.5" as="geometry" />
        </mxCell>
        <mxCell id="kQXzKHsSV_J-5wYFKN4F-162" value="Dezember" style="strokeColor=#BAC8D3;fillColor=#5d7f99;fontSize=19;strokeWidth=2;fontFamily=Helvetica;html=1;labelBackgroundColor=none;fontColor=#FFFFFF;" vertex="1" parent="1">
          <mxGeometry x="-1640" y="730.5" width="100" height="240.5" as="geometry" />
        </mxCell>
        <mxCell id="kQXzKHsSV_J-5wYFKN4F-163" value="GerÃ¤t" style="strokeColor=#BAC8D3;fillColor=#23445D;fontSize=24;strokeWidth=2;horizontal=0;fontFamily=Helvetica;html=1;fontColor=#FFFFFF;fontStyle=0;rotation=90;" vertex="1" parent="1">
          <mxGeometry x="-1412" y="-120" width="84" height="340.75" as="geometry" />
        </mxCell>
        <mxCell id="kQXzKHsSV_J-5wYFKN4F-165" value="Netzwerk" style="strokeColor=#BAC8D3;fillColor=#23445D;fontSize=24;strokeWidth=2;horizontal=0;fontFamily=Helvetica;html=1;fontColor=#FFFFFF;fontStyle=0;rotation=90;" vertex="1" parent="1">
          <mxGeometry x="-1160" y="-31.869999999999997" width="84" height="164.5" as="geometry" />
        </mxCell>
        <mxCell id="kQXzKHsSV_J-5wYFKN4F-166" value="Betrieb" style="strokeColor=#BAC8D3;fillColor=#23445D;fontSize=24;strokeWidth=2;horizontal=0;fontFamily=Helvetica;html=1;fontColor=#FFFFFF;fontStyle=0;rotation=90;" vertex="1" parent="1">
          <mxGeometry x="-994" y="-35.87" width="84" height="172.5" as="geometry" />
        </mxCell>
        <mxCell id="kQXzKHsSV_J-5wYFKN4F-182" value="&amp;nbsp;" style="text;whiteSpace=wrap;html=1;" vertex="1" parent="1">
          <mxGeometry x="-1390" y="150" width="40" height="40" as="geometry" />
        </mxCell>
      </root>
    </mxGraphModel>
  </diagram>
</mxfile>
